<?xml version="1.0" encoding="iso-8859-1"?>
<!-- Generator: Adobe Illustrator 19.0.0, SVG Export Plug-In . SVG Version: 6.00 Build 0)  -->
<svg version="1.1" id="Layer_1" xmlns="http://www.w3.org/2000/svg" xmlns:xlink="http://www.w3.org/1999/xlink" x="0px" y="0px"
	 viewBox="0 0 511.999 511.999" style="enable-background:new 0 0 511.999 511.999;" xml:space="preserve">
<g>
	<g>
		<path d="M454.609,185.027H321.515V166.19h51.591v-30.417h-82.008v49.253h-19.89V50.865c0-11.275,9.173-20.447,20.447-20.447
			c11.274,0,20.446,9.172,20.446,20.447v30.828h30.417V50.865C342.519,22.817,319.701,0,291.656,0
			c-28.047,0-50.865,22.817-50.865,50.865v134.162h-19.89v-49.253h-82.008v30.417h51.591v18.836H57.39
			c-19.567,0-35.487,15.919-35.487,35.487c0,17.28,12.417,31.706,28.796,34.845c6.651,94.654,77.582,171.855,169.307,188.101v32.546
			c0,19.847,16.146,35.994,35.994,35.994c19.847,0,35.994-16.146,35.994-35.994v-32.546
			c91.726-16.245,162.656-93.446,169.307-188.101c16.378-3.139,28.796-17.565,28.796-34.845
			C490.096,200.946,474.177,185.027,454.609,185.027z M261.576,476.005c0,3.075-2.501,5.576-5.576,5.576
			c-3.075,0-5.576-2.501-5.576-5.576v-29.468c0.013,0,0.026,0,0.041,0c1.84,0.049,3.685,0.076,5.536,0.076
			c1.851,0,3.697-0.027,5.536-0.076c0.013,0,0.027,0,0.041,0V476.005z M274.646,415.2c-1.276,0.135-2.555,0.256-3.834,0.364
			c-0.255,0.021-0.509,0.045-0.763,0.065c-1.33,0.106-2.66,0.195-3.989,0.271c-0.24,0.013-0.479,0.03-0.719,0.044
			c-1.318,0.07-2.634,0.122-3.948,0.162c-0.258,0.008-0.514,0.021-0.773,0.027c-1.545,0.042-3.087,0.064-4.62,0.064
			c-1.533,0-3.075-0.022-4.62-0.064c-0.259-0.007-0.515-0.02-0.773-0.027c-1.314-0.041-2.63-0.091-3.948-0.162
			c-0.24-0.013-0.479-0.029-0.719-0.044c-1.329-0.076-2.659-0.165-3.989-0.271c-0.255-0.02-0.509-0.043-0.763-0.065
			c-1.28-0.107-2.557-0.229-3.834-0.364C154.357,406.389,88.452,339.461,81.25,256h349.504
			C423.549,339.461,357.645,406.389,274.646,415.2z M454.608,225.583H57.39c-2.795,0-5.07-2.274-5.07-5.07s2.274-5.07,5.07-5.07
			h397.219c2.795,0,5.07,2.274,5.07,5.07S457.404,225.583,454.608,225.583z"/>
	</g>
</g>
<g>
	<g>
		<path d="M372.248,285.96c-9.03,23.151-24.638,42.939-45.136,57.223c-20.951,14.6-45.542,22.318-71.113,22.318v30.417
			c31.821,0,62.425-9.607,88.504-27.78c25.462-17.743,44.855-42.338,56.083-71.125L372.248,285.96z"/>
	</g>
</g>
<g>
</g>
<g>
</g>
<g>
</g>
<g>
</g>
<g>
</g>
<g>
</g>
<g>
</g>
<g>
</g>
<g>
</g>
<g>
</g>
<g>
</g>
<g>
</g>
<g>
</g>
<g>
</g>
<g>
</g>
</svg>
