<svg id="Layer_1" data-name="Layer 1" xmlns="http://www.w3.org/2000/svg" viewBox="0 0 1102.03 220.14"><defs><style>.cls-1{fill:#64a133;}.cls-2{fill:#022287;}</style></defs><title>Logo-01</title><polygon class="cls-1" points="9.64 201.72 9.64 8.24 0 8.24 0 201.72 0 211.36 9.64 211.36 65.63 211.36 65.63 201.72 9.64 201.72"/><rect class="cls-1" x="117.78" y="374.88" width="123.38" height="9.64" transform="translate(-289.22 329.82) rotate(-90)"/><rect class="cls-1" x="82.67" y="45.52" width="15.84" height="15.84" rx="4.69" ry="4.69"/><path class="cls-1" d="M430.59,408.91c-9.08,15.38-24.94,25.6-43,25.6A48.51,48.51,0,0,1,355.22,422l71.08-79,.08.11,4.22-4.69v0h0l.84-.94c-10.7-13.26-26.38-21.68-43.91-21.68-32.25,0-58.39,28.36-58.39,63.35s26.14,63.35,58.39,63.35c17.05,0,32.35-8,43-20.62Zm-94.12-29.84c0-30.62,22.88-55.44,51.1-55.44a48.47,48.47,0,0,1,32.07,12.31l-71,79A58,58,0,0,1,336.47,379.07Z" transform="translate(-88.99 -229.35)"/><path class="cls-1" d="M935.09,408.91c-9.08,15.38-24.94,25.6-43,25.6A48.51,48.51,0,0,1,859.72,422l71.08-79,.08.11,4.22-4.69v0h0l.84-.94c-10.7-13.26-26.38-21.68-43.91-21.68-32.25,0-58.39,28.36-58.39,63.35s26.14,63.35,58.39,63.35c17.05,0,32.35-8,43-20.62ZM841,379.07c0-30.62,22.88-55.44,51.1-55.44a48.47,48.47,0,0,1,32.07,12.31l-71,79A58,58,0,0,1,841,379.07Z" transform="translate(-88.99 -229.35)"/><path class="cls-2" d="M525.81,229.35S455.49,333.9,455.49,375s31.48,74.47,70.32,74.47,65.69-33.6,70.31-74.47C601.24,329.88,525.81,229.35,525.81,229.35Zm61.34,146.82c-4,35.64-27.45,64.94-61.32,64.94S464.5,412,464.5,376.17s61.32-127,61.32-127S591.6,336.8,587.15,376.17Z" transform="translate(-88.99 -229.35)"/><path class="cls-1" d="M760.57,417.76a80.42,80.42,0,0,1-49.33,17.14c-47.81,0-86.57-43-86.57-96s38.76-96,86.57-96A80.42,80.42,0,0,1,760.57,260V248.45a87.7,87.7,0,0,0-48.38-14.68c-52.53,0-95.12,47.24-95.12,105.51s42.58,105.51,95.12,105.51a87.7,87.7,0,0,0,48.38-14.68Z" transform="translate(-88.99 -229.35)"/><path class="cls-1" d="M830.07,434.29c-18.13-.45-32.71-16.45-32.8-36.21h-.05v-13.4c-.07.1-.15.19-.22.3V371.55c.08-.16.15-.33.22-.5v-.34L797,371V237.65h-9.64V399.92h.09c.82,10.91,8,41.14,41.2,43.63.48,0,.94,0,1.41,0Z" transform="translate(-88.99 -229.35)"/><path class="cls-1" d="M1057.5,318v27.11c-10-18.26-27.88-30.46-48.29-30.46-31.42,0-56.9,28.84-56.9,64.41s25.47,64.41,56.9,64.41c20.4,0,38.24-12.2,48.29-30.46v27.16h8.61V318Zm-48.28,116.58c-26.66,0-48.28-24.51-48.28-54.73s21.61-54.73,48.28-54.73,48.28,24.51,48.28,54.73S1035.88,434.59,1009.22,434.59Z" transform="translate(-88.99 -229.35)"/><path class="cls-1" d="M1103.88,440.88V372.58q0-20,11.89-33.61t30.42-13.58q33.3,0,33.3,46.19v69.3H1191V368.2q0-25.66-11-39.5t-31.8-13.83q-29.8,0-43.81,26.41h-.5V318h-11.52V440.88Z" transform="translate(-88.99 -229.35)"/><polygon class="cls-1" points="218.07 88.66 172.59 193.11 127.11 88.66 118.3 88.66 173.25 214.84 228.19 88.66 218.07 88.66"/></svg>