<svg id="Layer_1" data-name="Layer 1" xmlns="http://www.w3.org/2000/svg" viewBox="0 0 122.88 82.79"><defs><style>.cls-1{fill-rule:evenodd;}</style></defs><title>hand-sanitizer</title><path class="cls-1" d="M0,48H16.44l-.66,28.45H0V48ZM78.28,28.68,79.7,28l-3.15-6.57a1.57,1.57,0,0,1-.07-1.2l0-.11a1.54,1.54,0,0,1,.75-.78l1.93-.9-2.59-5.39-17,8.16a1.33,1.33,0,0,1-1.66-.27c-1.34-.88-3.23-2.42-4.51-3.46a1.32,1.32,0,0,1-.38-.47h0a1.35,1.35,0,0,1-.1-.94,1.81,1.81,0,0,1,.29-.57,1.73,1.73,0,0,1,.57-.47l.06,0L84.79.15A1.54,1.54,0,0,1,86,.09l.12.05a1.48,1.48,0,0,1,.75.73L89,5.41a1.54,1.54,0,0,1,.06,1.17,1.57,1.57,0,0,1-.78.87L85,9l2.58,5.38,1.87-.91a1.58,1.58,0,0,1,2.09.74l3.15,6.57L96.35,20a7.86,7.86,0,0,1,10.46,3.68L107.9,26,75.69,41.42,74.6,39.14a7.87,7.87,0,0,1,3.68-10.46Zm-19.39-5c1.47,5.73,5.52,8.51,5.59,11.39S63.31,40.86,59.34,41,54,38.2,53.89,35.33s3.82-5.85,5-11.64ZM81.82,27l10.72-5.14L89.73,16,79,21.12,81.82,27Zm-.49-9.56,4.11-2-2.59-5.38-4.11,2,2.59,5.39Zm27.59,10.65L120,51.17,87.79,66.63,76.71,43.53l32.21-15.46ZM121,53.29l1.09,2.27A7.86,7.86,0,0,1,118.43,66l-18,8.63-.2.1a7.88,7.88,0,0,1-5.89.27A7.8,7.8,0,0,1,90,71.13a2,2,0,0,1-.1-.21l-1-2.17L121,53.29ZM92.75,39.92l3.31-1.59a1.26,1.26,0,0,1,1.67.59l2.1,4.37,4.36-2.1a1.25,1.25,0,0,1,1.67.58l1.59,3.32a1.24,1.24,0,0,1-.59,1.66l-4.36,2.1,2,4.27a1.26,1.26,0,0,1-.59,1.67l-3.31,1.59A1.26,1.26,0,0,1,99,55.79l-2-4.27-4.36,2.1A1.26,1.26,0,0,1,90.9,53l-1.59-3.31a1.25,1.25,0,0,1,.58-1.67L94.26,46l-2.09-4.36a1.25,1.25,0,0,1,.58-1.67ZM19,74.12l.55-23.61,10.62.24c4.48.92,8.93,3.46,13.37,6.4l8.25.19c3.73.32,5.59,4.15,1.91,6.55-2.94,2-6.76,1.84-10.66,1.4-2.7-.19-2.9,3.43-.08,3.51,1,.1,2-.11,3-.09,4.88.11,8.93-.73,11.48-4.53l1.3-2.86,12.41-5.8c6.19-1.87,10.41,4.65,5.78,9A160.87,160.87,0,0,1,49.23,80c-6.87,4-13.64,3.67-20.32-.47L19,74.12Z"/></svg>